<svg height="512pt" viewBox="0 0 512 512" width="512pt" xmlns="http://www.w3.org/2000/svg"><path d="m497 256c0 133.101562-107.898438 241-241 241s-241-107.898438-241-241 107.898438-241 241-241 241 107.898438 241 241zm0 0" fill="#00347b" fill-rule="evenodd"/><path d="m256 15v482c133.101562 0 241-107.898438 241-241s-107.898438-241-241-241zm0 0" fill="#001737" fill-rule="evenodd"/><path d="m286.601562 294.902344c-3.6875 0-7.378906-1.410156-10.195312-4.226563l-55.085938-55.082031c-2.703124-2.703125-4.222656-6.371094-4.222656-10.195312 0-3.824219 1.519532-7.492188 4.222656-10.199219l144.445313-144.441407c5.628906-5.628906 14.761719-5.628906 20.390625 0 17.398438 17.398438 26.980469 40.582032 26.980469 65.28125 0 24.699219-9.582031 47.882813-26.980469 65.28125l-89.355469 89.359376c-2.816406 2.8125-6.507812 4.222656-10.199219 4.222656zm0 0" fill="#c8beb9"/><path d="m386.699219 309.371094h-126.371094c-7.964844 0-14.417969-6.457032-14.417969-14.421875v-77.898438c0-7.964843 6.453125-14.421875 14.417969-14.421875h204.273437c7.964844 0 14.417969 6.457032 14.417969 14.421875 0 50.902344-41.414062 92.320313-92.320312 92.320313zm0 0" fill="#dcd2cd"/><path d="m375.960938 413.136719c-24.699219 0-47.882813-9.582031-65.28125-26.980469l-89.359376-89.359375c-2.703124-2.703125-4.222656-6.371094-4.222656-10.195313 0-3.824218 1.519532-7.492187 4.222656-10.195312l55.085938-55.085938c5.632812-5.628906 14.761719-5.628906 20.394531 0l144.441407 144.445313c5.632812 5.628906 5.632812 14.761719 0 20.390625-17.398438 17.398438-40.582032 26.980469-65.28125 26.980469zm0 0" fill="#c8beb9"/><path d="m294.949219 266.09375h-77.898438c-7.964843 0-14.417969-6.457031-14.417969-14.421875v-204.273437c0-7.964844 6.453126-14.417969 14.417969-14.417969 50.90625 0 92.320313 41.414062 92.320313 92.320312v126.371094c0 7.964844-6.457032 14.421875-14.421875 14.421875zm0 0" fill="#ebe1dc"/><path d="m294.949219 479.019531c-50.90625 0-92.320313-41.414062-92.320313-92.320312v-126.371094c0-7.964844 6.457032-14.417969 14.417969-14.417969h77.902344c7.964843 0 14.417969 6.453125 14.417969 14.417969v204.273437c.003906 7.964844-6.453126 14.417969-14.417969 14.417969zm0 0" fill="#ebe1dc"/><path d="m294.949219 245.90625h-38.949219v224.480469c11.84375 5.535156 25.039062 8.632812 38.949219 8.632812 7.964843 0 14.421875-6.457031 14.421875-14.417969v-204.273437c0-7.964844-6.457032-14.421875-14.421875-14.421875zm0 0" fill="#dcd2cd"/><path d="m256 41.609375v224.480469h38.949219c7.964843 0 14.421875-6.453125 14.421875-14.417969v-126.371094c0-36.996093-21.878906-68.972656-53.371094-83.691406zm0 0" fill="#dcd2cd"/><path d="m136.039062 445.464844c-3.691406 0-7.382812-1.40625-10.195312-4.222656-35.996094-35.996094-35.996094-94.566407 0-130.5625l89.359375-89.359376c5.628906-5.632812 14.761719-5.632812 20.390625 0l55.085938 55.085938c5.628906 5.628906 5.628906 14.757812 0 20.390625l-144.445313 144.445313c-2.8125 2.816406-6.503906 4.222656-10.195313 4.222656zm0 0" fill="#f5f0eb"/><path d="m251.671875 309.371094h-204.273437c-7.964844 0-14.417969-6.457032-14.417969-14.421875 0-50.902344 41.414062-92.320313 92.320312-92.320313h126.371094c7.964844 0 14.421875 6.457032 14.421875 14.421875v77.898438c0 7.964843-6.457031 14.421875-14.421875 14.421875zm0 0" fill="#ebe1dc"/><path d="m225.398438 294.902344c-3.691407 0-7.382813-1.410156-10.195313-4.226563l-144.445313-144.441406c-5.628906-5.628906-5.628906-14.761719 0-20.390625 35.996094-35.996094 94.566407-35.996094 130.5625 0l89.359376 89.359375c5.632812 5.628906 5.632812 14.761719 0 20.390625l-55.085938 55.085938c-2.816406 2.8125-6.503906 4.222656-10.195312 4.222656zm0 0" fill="#f5f0eb"/><path d="m256 361c-57.898438 0-105-47.101562-105-105s47.101562-105 105-105 105 47.101562 105 105-47.101562 105-105 105zm0 0" fill="#3aaaff"/><path d="m256 301c-24.8125 0-45-20.1875-45-45s20.1875-45 45-45 45 20.1875 45 45-20.1875 45-45 45zm0 0" fill="#00429d"/><path d="m256 512c-68.378906 0-132.667969-26.628906-181.019531-74.980469-48.351563-48.351562-74.980469-112.640625-74.980469-181.019531s26.628906-132.667969 74.980469-181.019531c48.351562-48.351563 112.640625-74.980469 181.019531-74.980469s132.667969 26.628906 181.019531 74.980469c48.351563 48.351562 74.980469 112.640625 74.980469 181.019531s-26.628906 132.667969-74.980469 181.019531c-48.351562 48.351563-112.640625 74.980469-181.019531 74.980469zm0-482c-124.617188 0-226 101.382812-226 226s101.382812 226 226 226 226-101.382812 226-226-101.382812-226-226-226zm0 0" fill="#00429d"/><path d="m437.019531 74.980469c-48.351562-48.351563-112.640625-74.980469-181.019531-74.980469v30c124.617188 0 226 101.382812 226 226s-101.382812 226-226 226v30c68.378906 0 132.667969-26.628906 181.019531-74.980469 48.351563-48.351562 74.980469-112.640625 74.980469-181.019531s-26.628906-132.667969-74.980469-181.019531zm0 0" fill="#00347b"/><path d="m256 151v210c57.898438 0 105-47.101562 105-105s-47.101562-105-105-105zm0 0" fill="#008adf"/><path d="m256 211v90c24.8125 0 45-20.1875 45-45s-20.1875-45-45-45zm0 0" fill="#00347b"/></svg>